<?xml version="1.0" encoding="UTF-8"?><svg id="Layer_1" xmlns="http://www.w3.org/2000/svg" viewBox="0 0 592.44 592.44"><defs><style>.cls-1{fill:#63adf2;}</style></defs><polygon class="cls-1" points="345.56 246.84 394.94 246.84 394.94 197.47 345.56 197.47 320.87 197.47 320.87 172.78 320.87 123.41 271.5 123.41 271.5 172.78 271.5 197.47 271.5 246.84 320.87 246.84 345.56 246.84"/><polygon class="cls-1" points="419.62 271.53 394.94 271.53 345.56 271.53 345.56 320.91 345.56 345.6 345.56 394.97 394.94 394.97 394.94 345.6 394.94 320.91 419.62 320.91 469 320.91 469 271.53 419.62 271.53"/><polygon class="cls-1" points="246.88 345.6 197.5 345.6 197.5 394.97 246.88 394.97 271.57 394.97 271.57 419.66 271.57 469.03 320.94 469.03 320.94 419.66 320.94 394.97 320.94 345.6 271.57 345.6 246.88 345.6"/><polygon class="cls-1" points="246.88 320.91 246.88 271.53 246.88 246.84 246.88 197.47 197.5 197.47 197.5 246.84 197.5 271.53 172.81 271.53 123.44 271.53 123.44 320.91 172.81 320.91 197.5 320.91 246.88 320.91"/></svg>