<?xml version="1.0" encoding="UTF-8"?><svg id="Layer_1" xmlns="http://www.w3.org/2000/svg" viewBox="0 0 1660.29 592.51"><defs><style>.cls-1{fill:#fff;}.cls-2{fill:#062a4b;}.cls-3{fill:#63adf2;}</style></defs><rect class="cls-2" x="0" y="0" width="1660.29" height="592.51"/><g><path class="cls-1" d="m592.14,394.09v-196.33h90.25c42.2,0,72.38,25.49,72.38,69.16s-30.18,68.86-72.38,68.86h-46.3v58.31h-43.96Zm43.96-156.77v59.19h48.06c20.22,0,26.96-6.15,26.96-29.6s-6.74-29.6-26.96-29.6h-48.06Z"/><path class="cls-1" d="m763.26,356.58c0-22.86,16.41-36.92,46.88-41.61l50.4-7.62v-4.69c0-17.29-9.38-20.51-26.67-20.51s-24.91,4.98-24.91,19.93v3.22h-41.9v-3.22c0-35.16,27.25-58.31,68.86-58.31s66.23,23.74,66.23,63v87.32h-40.73v-19.93h-1.76c-7.91,10.84-22.86,22.86-50.11,22.86s-46.3-13.77-46.3-40.44Zm60.95,7.03c17.88,0,36.34-4.69,36.34-27.54l-42.2,6.45c-9.08,1.46-13.19,4.4-13.19,10.55,0,7.91,6.15,10.55,19.05,10.55Z"/><path class="cls-1" d="m922.96,440.68v-36.34h24.62c11.13,0,15.24-1.46,19.63-10.84l2.64-5.57-61.83-141.24h48.94l24.03,61.54,10.55,28.42h3.22l9.08-28.42,20.8-61.54h48.94l-65.64,157.65c-12.6,30.18-29.01,39.56-58.02,39.56-9.96,0-20.8-1.76-26.96-3.22Z"/><path class="cls-1" d="m1084.71,394.09v-147.39h40.73v23.74h1.76c7.33-14.95,20.51-26.67,41.32-26.67,30.77,0,42.2,22.86,42.2,52.45v13.48h-43.66v-7.91c0-15.82-4.98-20.8-18.75-20.8s-19.93,4.69-19.93,20.8v92.3h-43.66Z"/><path class="cls-1" d="m1222.73,320.83c0-47.18,28.13-77.07,74.14-77.07s70.33,26.37,70.33,64.76c0,8.2-1.17,16.7-2.05,21.68h-101.09c.88,20.51,9.08,28.72,33.11,28.72,17.58,0,25.2-3.81,25.2-12.89v-1.76h43.37v2.93c0,31.35-26.96,49.82-69.16,49.82-50.69,0-73.84-29.6-73.84-76.19Zm41.61-17.29h60.66c.88-15.24-9.08-23.74-29.6-23.74s-29.3,8.2-31.06,23.74Z"/><path class="cls-1" d="m1384.77,320.54c0-46.59,21.98-76.77,62.42-76.77,22.56,0,39.85,8.79,47.47,24.61h1.47v-21.68h40.73v196.62h-43.66v-68.57h-1.76c-6.74,12.6-21.39,22.27-43.08,22.27-41.32,0-63.59-30.18-63.59-76.48Zm76.19,38.97c20.8,0,32.23-7.33,32.23-27.25v-23.74c0-19.93-11.43-27.25-32.23-27.25-25.49,0-32.53,12.31-32.53,39.27s7.03,38.97,32.53,38.97Z"/></g><g><polygon class="cls-3" points="345.56 246.88 394.94 246.88 394.94 197.5 345.56 197.5 320.87 197.5 320.87 172.81 320.87 123.44 271.5 123.44 271.5 172.81 271.5 197.5 271.5 246.88 320.87 246.88 345.56 246.88"/><polygon class="cls-3" points="419.62 271.57 394.94 271.57 345.56 271.57 345.56 320.94 345.56 345.63 345.56 395 394.94 395 394.94 345.63 394.94 320.94 419.62 320.94 469 320.94 469 271.57 419.62 271.57"/><polygon class="cls-3" points="246.88 345.63 197.5 345.63 197.5 395 246.88 395 271.57 395 271.57 419.69 271.57 469.07 320.94 469.07 320.94 419.69 320.94 395 320.94 345.63 271.57 345.63 246.88 345.63"/><polygon class="cls-3" points="246.88 320.94 246.88 271.57 246.88 246.88 246.88 197.5 197.5 197.5 197.5 246.88 197.5 271.57 172.81 271.57 123.44 271.57 123.44 320.94 172.81 320.94 197.5 320.94 246.88 320.94"/></g></svg>